<svg width="201" height="201" viewBox="0 0 201 201" fill="none" xmlns="http://www.w3.org/2000/svg">
<circle cx="100.5" cy="100.5" r="100.5" fill="#EB0D26"/>
<path d="M105.924 165V180.876H95.5986V178.465H103.048V174.155H96.1335V171.744H103.048V167.411H95.5366V165H105.924Z" fill="white"/>
<path d="M85.9286 175.502L84.5638 170.682L81.2051 174.423L78.3105 173.763L83.1345 168.757L80.8996 162.14L83.7791 162.798L85.2814 167.538L88.6689 163.914L91.5711 164.576L86.7093 169.573L88.8308 176.164L85.9286 175.502Z" fill="white"/>
<path d="M80.0659 157.143L72.9622 171.894L70.4757 170.696L71.3301 168.922L71.1834 168.852C70.9274 169.05 70.6101 169.238 70.2314 169.417C69.8504 169.601 69.4069 169.7 68.9009 169.714C68.3927 169.733 67.8242 169.592 67.1957 169.289C66.3668 168.89 65.7215 168.318 65.2598 167.574C64.7911 166.832 64.5596 165.954 64.5654 164.942C64.5642 163.932 64.8507 162.831 65.4247 161.639C65.992 160.461 66.6674 159.553 67.4507 158.915C68.2341 158.277 69.063 157.901 69.9373 157.789C70.8117 157.677 71.6703 157.823 72.5131 158.229C73.1277 158.525 73.5882 158.873 73.8947 159.273C74.2011 159.673 74.4082 160.077 74.5159 160.484C74.6168 160.894 74.672 161.262 74.6814 161.588L74.7862 161.638L77.5375 155.925L80.0659 157.143ZM73.0659 165.336C73.4 164.642 73.5948 163.987 73.6504 163.372C73.7013 162.754 73.6112 162.208 73.3799 161.736C73.1418 161.265 72.755 160.901 72.2195 160.643C71.6608 160.374 71.1211 160.298 70.6004 160.414C70.0775 160.535 69.595 160.811 69.153 161.24C68.704 161.672 68.3181 162.223 67.9952 162.894C67.6746 163.56 67.4853 164.197 67.4273 164.806C67.3693 165.415 67.4582 165.956 67.6941 166.431C67.93 166.906 68.3296 167.279 68.893 167.551C69.4332 167.811 69.9602 167.89 70.4741 167.787C70.9881 167.685 71.4662 167.425 71.9084 167.007C72.3459 166.587 72.7318 166.029 73.0659 165.336Z" fill="white"/>
<path d="M50.5673 163.139L60.466 150.726L62.66 152.476L52.7614 164.889L50.5673 163.139Z" fill="white"/>
<path d="M50.7281 140.455C51.4531 141.365 51.8815 142.312 52.0131 143.298C52.1448 144.283 51.9976 145.247 51.5716 146.188C51.1424 147.125 50.447 147.977 49.4853 148.744C48.5237 149.511 47.5362 150.001 46.523 150.214C45.5065 150.423 44.5324 150.354 43.6007 150.006C42.669 149.659 41.8407 149.03 41.1157 148.121C40.3907 147.212 39.9624 146.265 39.8307 145.279C39.6991 144.293 39.8499 143.33 40.2831 142.39C40.7132 141.445 41.409 140.59 42.3707 139.823C43.3323 139.056 44.3193 138.569 45.3318 138.364C46.341 138.154 47.3114 138.223 48.2431 138.57C49.1748 138.918 50.0031 139.546 50.7281 140.455ZM48.9608 141.845C48.5677 141.352 48.1037 141.048 47.5688 140.932C47.0298 140.82 46.4655 140.867 45.876 141.073C45.2833 141.274 44.7041 141.601 44.1384 142.052C43.5687 142.506 43.1196 143 42.7911 143.533C42.4553 144.065 42.2822 144.606 42.2716 145.157C42.2611 145.707 42.4524 146.229 42.8455 146.722C43.2483 147.227 43.7208 147.538 44.263 147.654C44.8019 147.766 45.3698 147.72 45.9666 147.515C46.5561 147.309 47.1357 146.979 47.7054 146.525C48.2711 146.074 48.7198 145.584 49.0515 145.055C49.38 144.522 49.5496 143.98 49.5601 143.429C49.5634 142.878 49.3636 142.35 48.9608 141.845Z" fill="white"/>
<path d="M44.1711 130.712L33.4431 135.879L32.2625 133.427L34.0505 132.566L33.9967 132.454C33.2833 132.557 32.6445 132.451 32.0806 132.138C31.5097 131.822 31.0763 131.357 30.7803 130.742C30.713 130.603 30.6449 130.443 30.5759 130.264C30.5 130.083 30.4457 129.928 30.4129 129.801L32.7387 128.681C32.753 128.806 32.8023 128.991 32.8864 129.238C32.9637 129.481 33.0539 129.71 33.1571 129.925C33.3791 130.386 33.6787 130.752 34.0561 131.023C34.4266 131.292 34.8369 131.447 35.287 131.489C35.7371 131.53 36.1903 131.441 36.6466 131.221L42.9535 128.184L44.1711 130.712Z" fill="white"/>
<path d="M38.5962 114.237C38.8618 115.401 38.8494 116.461 38.5589 117.418C38.2622 118.371 37.7198 119.176 36.9314 119.833C36.1381 120.491 35.1343 120.959 33.92 121.236C32.7259 121.508 31.6262 121.521 30.6208 121.273C29.6092 121.022 28.7578 120.543 28.0665 119.836C27.3701 119.131 26.8955 118.225 26.6425 117.116C26.4792 116.401 26.441 115.699 26.5278 115.011C26.6085 114.32 26.8324 113.675 27.1995 113.077C27.5655 112.474 28.0866 111.947 28.7628 111.495C29.434 111.045 30.2785 110.704 31.2963 110.472L32.1352 110.28L34.307 119.796L32.4629 120.217L30.8897 113.324C30.3668 113.449 29.9267 113.668 29.5691 113.983C29.2066 114.299 28.9523 114.683 28.8064 115.135C28.6593 115.582 28.6455 116.068 28.7651 116.592C28.8928 117.151 29.1409 117.611 29.5096 117.972C29.8732 118.335 30.3013 118.584 30.7937 118.721C31.2799 118.854 31.783 118.864 32.3031 118.75L33.9129 118.383C34.5881 118.229 35.1393 117.973 35.5667 117.616C35.989 117.26 36.278 116.83 36.4338 116.328C36.5845 115.828 36.592 115.28 36.4563 114.685C36.3654 114.287 36.2278 113.94 36.0434 113.642C35.8539 113.346 35.6213 113.105 35.3455 112.919C35.0698 112.733 34.7544 112.617 34.3993 112.571L34.1034 109.951C34.8154 109.958 35.475 110.13 36.0823 110.469C36.6835 110.803 37.2026 111.289 37.6395 111.926C38.0715 112.565 38.3903 113.335 38.5962 114.237Z" fill="white"/>
<path d="M21.3435 91.9593L22.1266 88.5281L34.391 86.4929L34.4324 86.3115L24.2656 79.1565L25.0488 75.7254L40.5269 79.2581L39.9128 81.9487L29.2792 79.5216L29.2464 79.6652L38.8584 86.3596L38.3995 88.3699L26.8122 90.2257L26.7794 90.3693L37.4357 92.8015L36.8216 95.4921L21.3435 91.9593Z" fill="white"/>
<path d="M43.8544 73.4833C43.3499 74.531 42.6822 75.328 41.8512 75.8742C41.0203 76.4205 40.0883 76.706 39.0555 76.7306C38.0249 76.7505 36.9555 76.4936 35.8473 75.9599C34.7391 75.4263 33.8692 74.7492 33.2375 73.9288C32.6081 73.1037 32.2479 72.196 32.1569 71.2057C32.0659 70.2155 32.2727 69.1965 32.7772 68.1488C33.2817 67.1012 33.9495 66.3042 34.7804 65.7579C35.6114 65.2116 36.5445 64.9296 37.5798 64.912C38.6173 64.8896 39.6901 65.1453 40.7983 65.679C41.9065 66.2126 42.773 66.8909 43.3977 67.7137C44.0247 68.5319 44.3837 69.4362 44.4747 70.4264C44.5657 71.4167 44.3589 72.4357 43.8544 73.4833ZM41.8357 72.494C42.1092 71.9259 42.182 71.3758 42.0539 70.8438C41.9211 70.3095 41.6342 69.8214 41.1931 69.3795C40.7542 68.933 40.2088 68.5528 39.5569 68.2389C38.9004 67.9227 38.2608 67.7322 37.638 67.6675C37.0129 67.5959 36.45 67.6748 35.9495 67.9041C35.4491 68.1334 35.062 68.5321 34.7885 69.1002C34.5082 69.6822 34.4333 70.2427 34.5638 70.7817C34.6965 71.3159 34.9847 71.8075 35.4282 72.2563C35.8693 72.6981 36.4182 73.0771 37.0747 73.3933C37.7266 73.7072 38.3628 73.8989 38.9833 73.9683C39.606 74.033 40.1676 73.9507 40.6681 73.7213C41.1662 73.4851 41.5554 73.076 41.8357 72.494Z" fill="white"/>
<path d="M49.7882 63.3495L40.4789 55.9255L42.1753 53.7982L43.7269 55.0355L43.8042 54.9385C43.4022 54.3403 43.22 53.7191 43.2578 53.0749C43.2947 52.4235 43.5258 51.8312 43.9512 51.2978C44.0478 51.1766 44.1618 51.0461 44.2932 50.9062C44.4237 50.7591 44.5394 50.6431 44.6401 50.5582L46.6584 52.1677C46.5519 52.2349 46.406 52.3598 46.2207 52.5425C46.0345 52.7179 45.8673 52.8986 45.7191 53.0844C45.4001 53.4845 45.2002 53.9133 45.1194 54.3711C45.0377 54.8216 45.0759 55.2586 45.234 55.6821C45.392 56.1056 45.669 56.4752 46.065 56.791L51.5379 61.1555L49.7882 63.3495Z" fill="white"/>
<path d="M62.2125 51.1774C61.2791 51.9217 60.3184 52.3706 59.3302 52.5241C58.3429 52.6702 57.3823 52.5307 56.4483 52.1056C55.5111 51.6764 54.6542 50.9749 53.8776 50.0011C53.114 49.0435 52.6256 48.0581 52.4125 47.0448C52.2001 46.0243 52.2622 45.0494 52.5986 44.1201C52.9317 43.1868 53.5428 42.3657 54.4317 41.6568C55.0054 41.1993 55.621 40.8604 56.2783 40.6403C56.9365 40.4129 57.6146 40.3348 58.3126 40.4061C59.0147 40.4742 59.7157 40.715 60.4156 41.1285C61.1123 41.538 61.7861 42.1508 62.437 42.967L62.9735 43.6397L55.343 49.7249L54.1636 48.2461L59.6911 43.8381C59.3519 43.4211 58.963 43.1198 58.5242 42.9343C58.0822 42.7448 57.6259 42.6823 57.1552 42.747C56.6886 42.8084 56.2452 43.0067 55.825 43.3418C55.3765 43.6995 55.0695 44.1227 54.9041 44.6116C54.7355 45.0964 54.6964 45.5903 54.7868 46.0932C54.8781 46.589 55.0876 47.0465 55.4155 47.4659L56.445 48.7569C56.8767 49.2983 57.3463 49.684 57.8536 49.914C58.3577 50.14 58.8697 50.2142 59.3896 50.1367C59.9063 50.0552 60.403 49.8243 60.8798 49.4441C61.199 49.1895 61.4525 48.9147 61.6402 48.6196C61.8246 48.3204 61.941 48.0062 61.9891 47.677C62.0372 47.3478 62.005 47.0132 61.8926 46.6732L64.1248 45.2699C64.4273 45.9144 64.5578 46.5837 64.5164 47.2778C64.4758 47.9646 64.2632 48.643 63.8788 49.3131C63.4912 49.9792 62.9358 50.6006 62.2125 51.1774Z" fill="white"/>
<path d="M89.1393 31.0119L89.6533 33.2641L82.6852 34.8546L82.1711 32.6024L89.1393 31.0119Z" fill="white"/>
<path d="M109.507 38.4037L113.04 22.9255L123.107 25.2232L122.571 27.5737L115.308 25.9159L114.349 30.118L121.09 31.6567L120.554 34.0072L113.812 32.4685L112.848 36.6932L120.171 38.3647L119.635 40.7152L109.507 38.4037Z" fill="white"/>
<path d="M131.338 32.6147L131.596 37.6175L135.703 34.7169L138.378 36.0051L132.561 39.8118L133.267 46.76L130.606 45.4785L130.197 40.523L126.088 43.3023L123.406 42.0108L129.257 38.2209L128.656 31.3231L131.338 32.6147Z" fill="white"/>
<path d="M132.969 51.8179L143.177 39.0175L145.335 40.7382L144.107 42.2776L144.235 42.3791C144.528 42.2431 144.88 42.1299 145.289 42.0397C145.701 41.9455 146.155 41.9476 146.652 42.0461C147.152 42.1406 147.674 42.4053 148.22 42.8403C148.939 43.4139 149.441 44.1149 149.725 44.9433C150.017 45.771 150.048 46.6777 149.817 47.6636C149.593 48.6486 149.069 49.6583 148.244 50.6927C147.429 51.7149 146.568 52.4499 145.663 52.8976C144.757 53.3454 143.865 53.5267 142.988 53.4417C142.11 53.3567 141.306 53.0226 140.575 52.4394C140.041 52.014 139.67 51.5723 139.46 51.1142C139.25 50.6561 139.138 50.2164 139.124 49.7951C139.117 49.373 139.145 49.0021 139.208 48.6824L139.117 48.6099L135.163 53.5676L132.969 51.8179ZM141.617 45.388C141.137 45.9901 140.801 46.585 140.61 47.1729C140.423 47.764 140.389 48.3157 140.51 48.8281C140.637 49.3396 140.933 49.7806 141.398 50.1512C141.883 50.5378 142.392 50.7324 142.926 50.7348C143.462 50.7331 143.994 50.5721 144.52 50.2517C145.054 49.9304 145.553 49.4789 146.017 48.897C146.478 48.3192 146.804 47.74 146.996 47.1594C147.188 46.5788 147.222 46.0307 147.098 45.5152C146.974 44.9996 146.667 44.5469 146.178 44.157C145.709 43.7832 145.213 43.5891 144.689 43.5746C144.165 43.56 143.641 43.7073 143.117 44.0165C142.597 44.3288 142.097 44.786 141.617 45.388Z" fill="white"/>
<path d="M163.062 52.5363L150.649 62.4349L148.9 60.2409L161.312 50.3423L163.062 52.5363Z" fill="white"/>
<path d="M157.858 74.6152C157.354 73.5676 157.147 72.5486 157.238 71.5583C157.329 70.5681 157.687 69.6615 158.312 68.8386C158.939 68.0204 159.806 67.3445 160.914 66.8108C162.023 66.2772 163.094 66.0192 164.13 66.0369C165.167 66.0592 166.101 66.3435 166.932 66.8898C167.763 67.4361 168.431 68.2331 168.936 69.2807C169.44 70.3284 169.647 71.3473 169.556 72.3376C169.465 73.3279 169.104 74.2332 168.472 75.0537C167.842 75.8788 166.974 76.5581 165.865 77.0918C164.757 77.6255 163.687 77.88 162.654 77.8554C161.623 77.8355 160.692 77.5524 159.862 77.0061C159.031 76.4598 158.363 75.6629 157.858 74.6152ZM159.891 73.6538C160.164 74.2218 160.549 74.6216 161.045 74.8532C161.545 75.0826 162.106 75.1625 162.726 75.0932C163.349 75.0284 163.986 74.8391 164.638 74.5252C165.295 74.209 165.842 73.8277 166.281 73.3811C166.727 72.937 167.016 72.4478 167.149 71.9135C167.282 71.3792 167.211 70.8281 166.938 70.26C166.657 69.678 166.266 69.27 165.763 69.036C165.263 68.8066 164.699 68.7255 164.071 68.7924C163.451 68.8618 162.812 69.0546 162.156 69.3707C161.504 69.6847 160.957 70.0626 160.516 70.5044C160.077 70.951 159.792 71.4414 159.659 71.9757C159.533 72.5124 159.61 73.0717 159.891 73.6538Z" fill="white"/>
<path d="M162.082 85.573L173.691 82.9234L174.296 85.5761L172.361 86.0177L172.389 86.1386C173.107 86.1973 173.707 86.4422 174.187 86.8733C174.673 87.3083 174.992 87.8584 175.144 88.5234C175.178 88.6746 175.209 88.8451 175.237 89.035C175.27 89.2288 175.289 89.3915 175.292 89.5232L172.776 90.0976C172.79 89.9725 172.783 89.7806 172.756 89.5218C172.735 89.2668 172.698 89.0235 172.645 88.7917C172.531 88.2929 172.32 87.8692 172.013 87.5206C171.711 87.1759 171.346 86.9333 170.916 86.7928C170.487 86.6524 170.025 86.6385 169.531 86.7512L162.706 88.3088L162.082 85.573Z" fill="white"/>
<path d="M163.85 102.876C163.85 101.682 164.099 100.651 164.595 99.7831C165.096 98.9201 165.804 98.256 166.719 97.7909C167.639 97.3257 168.721 97.0932 169.967 97.0932C171.192 97.0932 172.267 97.3257 173.192 97.7909C174.122 98.2612 174.845 98.9175 175.362 99.7599C175.884 100.602 176.145 101.592 176.145 102.729C176.145 103.463 176.026 104.155 175.789 104.806C175.556 105.463 175.194 106.042 174.703 106.543C174.212 107.049 173.587 107.447 172.827 107.737C172.073 108.026 171.174 108.171 170.13 108.171H169.269V98.411H171.161V105.481C171.698 105.476 172.176 105.359 172.595 105.132C173.019 104.905 173.352 104.587 173.595 104.179C173.838 103.775 173.959 103.305 173.959 102.768C173.959 102.194 173.82 101.69 173.541 101.256C173.267 100.822 172.905 100.483 172.455 100.241C172.011 100.003 171.522 99.8813 170.99 99.8762H169.339C168.646 99.8762 168.052 100.003 167.556 100.256C167.065 100.509 166.688 100.863 166.424 101.318C166.166 101.773 166.037 102.305 166.037 102.915C166.037 103.323 166.093 103.693 166.207 104.024C166.326 104.354 166.499 104.641 166.726 104.884C166.954 105.127 167.236 105.31 167.571 105.434L167.277 108.055C166.584 107.889 165.98 107.574 165.463 107.109C164.951 106.649 164.553 106.06 164.269 105.341C163.99 104.623 163.85 103.801 163.85 102.876Z" fill="white"/>
<path d="M175.714 128.434L174.187 131.605L161.777 130.86L161.696 131.028L170.016 140.266L168.489 143.436L154.185 136.548L155.382 134.062L165.209 138.794L165.273 138.661L157.392 129.996L158.287 128.138L169.996 128.907L170.06 128.775L160.212 124.032L161.41 121.546L175.714 128.434Z" fill="white"/>
<path d="M149.656 141.438C150.381 140.529 151.21 139.9 152.141 139.552C153.073 139.205 154.045 139.134 155.058 139.34C156.067 139.55 157.052 140.038 158.014 140.805C158.976 141.572 159.673 142.425 160.106 143.366C160.536 144.31 160.686 145.275 160.554 146.261C160.422 147.247 159.994 148.194 159.269 149.103C158.544 150.012 157.716 150.641 156.784 150.989C155.852 151.336 154.88 151.404 153.866 151.19C152.85 150.981 151.861 150.493 150.899 149.726C149.938 148.96 149.244 148.105 148.818 147.164C148.389 146.227 148.24 145.266 148.371 144.28C148.503 143.294 148.931 142.347 149.656 141.438ZM151.404 142.851C151.011 143.344 150.818 143.864 150.825 144.412C150.835 144.962 151.006 145.502 151.338 146.031C151.666 146.564 152.114 147.056 152.679 147.507C153.249 147.961 153.83 148.289 154.423 148.491C155.016 148.7 155.583 148.748 156.122 148.636C156.661 148.524 157.127 148.221 157.52 147.728C157.923 147.223 158.12 146.693 158.113 146.139C158.102 145.589 157.931 145.045 157.598 144.509C157.267 143.98 156.816 143.488 156.246 143.034C155.681 142.583 155.103 142.255 154.513 142.049C153.921 141.847 153.355 141.802 152.816 141.915C152.278 142.034 151.807 142.346 151.404 142.851Z" fill="white"/>
<path d="M141.616 149.997L149.04 159.306L146.913 161.003L145.676 159.451L145.579 159.529C145.837 160.201 145.877 160.848 145.697 161.467C145.516 162.094 145.159 162.62 144.625 163.045C144.504 163.142 144.364 163.244 144.205 163.351C144.045 163.465 143.906 163.553 143.789 163.613L142.18 161.595C142.298 161.553 142.468 161.464 142.69 161.327C142.91 161.197 143.113 161.058 143.299 160.91C143.699 160.591 143.99 160.218 144.17 159.789C144.35 159.368 144.41 158.934 144.35 158.486C144.29 158.038 144.103 157.616 143.787 157.22L139.422 151.747L141.616 149.997Z" fill="white"/>
<path d="M126.795 159.099C127.871 158.581 128.907 158.357 129.905 158.428C130.9 158.505 131.805 158.854 132.621 159.477C133.44 160.104 134.119 160.978 134.659 162.101C135.191 163.204 135.448 164.274 135.43 165.309C135.41 166.351 135.132 167.288 134.598 168.119C134.065 168.955 133.287 169.619 132.262 170.112C131.601 170.431 130.926 170.624 130.236 170.692C129.544 170.768 128.865 170.693 128.2 170.468C127.531 170.246 126.901 169.855 126.311 169.296C125.723 168.742 125.202 167.994 124.749 167.054L124.376 166.278L133.169 162.044L133.99 163.748L127.62 166.815C127.858 167.297 128.17 167.678 128.557 167.956C128.945 168.239 129.376 168.402 129.85 168.443C130.318 168.487 130.795 168.393 131.279 168.16C131.796 167.911 132.189 167.566 132.459 167.127C132.731 166.691 132.88 166.219 132.903 165.708C132.925 165.205 132.822 164.712 132.596 164.23L131.879 162.742C131.579 162.118 131.207 161.638 130.764 161.301C130.322 160.968 129.84 160.782 129.316 160.742C128.794 160.706 128.258 160.821 127.709 161.085C127.341 161.263 127.033 161.474 126.784 161.72C126.538 161.971 126.354 162.251 126.234 162.561C126.114 162.872 126.071 163.205 126.105 163.562L123.616 164.433C123.465 163.737 123.486 163.056 123.681 162.388C123.874 161.728 124.232 161.114 124.756 160.546C125.282 159.983 125.962 159.5 126.795 159.099Z" fill="white"/>
<path d="M126.522 96.6051C130.29 98.7806 130.29 104.219 126.522 106.395L94.7283 124.751C90.9601 126.926 86.25 124.207 86.25 119.856L86.25 83.144C86.25 78.793 90.9601 76.0736 94.7283 78.2491L126.522 96.6051Z" fill="white"/>
</svg>
