<svg width="576" height="128" viewBox="0 0 576 128" fill="none" xmlns="http://www.w3.org/2000/svg">
<path d="M0.522727 3.45448H14.4545L26.2727 32.2727H26.8182L38.6364 3.45448H52.5682V49.9999H41.6136V21.409H41.2273L30.0455 49.7045H23.0455L11.8636 21.2499H11.4773V49.9999H0.522727V3.45448ZM75.8807 50.659C72.214 50.659 69.0625 49.909 66.4261 48.409C63.8049 46.8939 61.7822 44.7878 60.358 42.0908C58.9489 39.3787 58.2443 36.2348 58.2443 32.659C58.2443 29.0681 58.9489 25.9242 60.358 23.2272C61.7822 20.5151 63.8049 18.409 66.4261 16.909C69.0625 15.3939 72.214 14.6363 75.8807 14.6363C79.5473 14.6363 82.6913 15.3939 85.3125 16.909C87.9489 18.409 89.9716 20.5151 91.3807 23.2272C92.8049 25.9242 93.517 29.0681 93.517 32.659C93.517 36.2348 92.8049 39.3787 91.3807 42.0908C89.9716 44.7878 87.9489 46.8939 85.3125 48.409C82.6913 49.909 79.5473 50.659 75.8807 50.659ZM75.9489 42.2727C77.2822 42.2727 78.411 41.8636 79.3352 41.0454C80.2595 40.2272 80.964 39.0908 81.4489 37.6363C81.9489 36.1818 82.1989 34.4999 82.1989 32.5908C82.1989 30.6515 81.9489 28.9545 81.4489 27.4999C80.964 26.0454 80.2595 24.909 79.3352 24.0908C78.411 23.2727 77.2822 22.8636 75.9489 22.8636C74.5701 22.8636 73.4034 23.2727 72.4489 24.0908C71.5095 24.909 70.7898 26.0454 70.2898 27.4999C69.8049 28.9545 69.5625 30.6515 69.5625 32.5908C69.5625 34.4999 69.8049 36.1818 70.2898 37.6363C70.7898 39.0908 71.5095 40.2272 72.4489 41.0454C73.4034 41.8636 74.5701 42.2727 75.9489 42.2727ZM131.949 15.0908L119.972 49.9999H107.244L95.2898 15.0908H106.994L113.426 39.1363H113.79L120.244 15.0908H131.949ZM151.403 50.659C147.752 50.659 144.6 49.9393 141.949 48.4999C139.313 47.0454 137.282 44.9772 135.858 42.2954C134.449 39.5984 133.744 36.3939 133.744 32.6818C133.744 29.0757 134.456 25.9242 135.881 23.2272C137.305 20.5151 139.312 18.409 141.903 16.909C144.494 15.3939 147.547 14.6363 151.062 14.6363C153.547 14.6363 155.82 15.0227 157.881 15.7954C159.941 16.5681 161.722 17.7121 163.222 19.2272C164.722 20.7424 165.888 22.6136 166.722 24.8408C167.555 27.053 167.972 29.5908 167.972 32.4545V35.2272H137.631V28.7727H157.631C157.616 27.5908 157.335 26.5378 156.79 25.6136C156.244 24.6893 155.494 23.9696 154.54 23.4545C153.6 22.9242 152.517 22.659 151.29 22.659C150.047 22.659 148.934 22.9393 147.949 23.4999C146.964 24.0454 146.184 24.7954 145.608 25.7499C145.032 26.6893 144.729 27.7575 144.699 28.9545V35.5227C144.699 36.9469 144.979 38.1969 145.54 39.2727C146.1 40.3333 146.896 41.159 147.926 41.7499C148.956 42.3408 150.184 42.6363 151.608 42.6363C152.593 42.6363 153.487 42.4999 154.29 42.2272C155.093 41.9545 155.782 41.553 156.358 41.0227C156.934 40.4924 157.366 39.8408 157.653 39.0681L167.858 39.3636C167.434 41.6515 166.502 43.6439 165.062 45.3408C163.638 47.0227 161.767 48.3333 159.449 49.2727C157.131 50.1969 154.449 50.659 151.403 50.659ZM193.92 49.9999L184.83 15.0908H195.989L200.693 37.4545H200.989L206.034 15.0908H216.92L222.102 37.2954H222.398L226.966 15.0908H238.125L229.011 49.9999H217.125L211.67 29.659H211.284L205.83 49.9999H193.92ZM242.585 49.9999V15.0908H253.699V49.9999H242.585ZM248.153 11.0227C246.593 11.0227 245.252 10.5075 244.131 9.47721C243.009 8.43176 242.449 7.17418 242.449 5.70448C242.449 4.24994 243.009 3.00751 244.131 1.97721C245.252 0.931755 246.593 0.409027 248.153 0.409027C249.729 0.409027 251.07 0.931755 252.176 1.97721C253.297 3.00751 253.858 4.24994 253.858 5.70448C253.858 7.17418 253.297 8.43176 252.176 9.47721C251.07 10.5075 249.729 11.0227 248.153 11.0227ZM280.477 15.0908V23.2727H258.455V15.0908H280.477ZM263.068 6.72721H274.182V39.0227C274.182 39.7045 274.288 40.2575 274.5 40.6818C274.727 41.0908 275.053 41.3863 275.477 41.5681C275.902 41.7348 276.409 41.8181 277 41.8181C277.424 41.8181 277.871 41.7802 278.341 41.7045C278.826 41.6136 279.189 41.5378 279.432 41.4772L281.114 49.4999C280.583 49.6515 279.833 49.8408 278.864 50.0681C277.909 50.2954 276.765 50.4393 275.432 50.4999C272.826 50.6212 270.591 50.3181 268.727 49.5908C266.879 48.8484 265.462 47.6969 264.477 46.1363C263.508 44.5757 263.038 42.6136 263.068 40.2499V6.72721ZM298.011 30.0908V49.9999H286.898V3.45448H297.648V21.4999H298.034C298.822 19.3484 300.11 17.6666 301.898 16.4545C303.701 15.2424 305.905 14.6363 308.511 14.6363C310.966 14.6363 313.102 15.1818 314.92 16.2727C316.739 17.3484 318.148 18.8712 319.148 20.8408C320.163 22.8105 320.663 25.1136 320.648 27.7499V49.9999H309.534V29.9318C309.549 27.9924 309.064 26.4772 308.08 25.3863C307.095 24.2954 305.708 23.7499 303.92 23.7499C302.754 23.7499 301.723 24.0075 300.83 24.5227C299.951 25.0227 299.261 25.7424 298.761 26.6818C298.277 27.6212 298.027 28.7575 298.011 30.0908ZM351.176 50.5908C348.949 50.5908 346.972 50.2196 345.244 49.4772C343.532 48.7196 342.176 47.5833 341.176 46.0681C340.191 44.5378 339.699 42.6212 339.699 40.3181C339.699 38.3787 340.04 36.7424 340.722 35.409C341.403 34.0757 342.343 32.9924 343.54 32.159C344.737 31.3257 346.116 30.6969 347.676 30.2727C349.237 29.8333 350.903 29.5378 352.676 29.3863C354.661 29.2045 356.259 29.0151 357.472 28.8181C358.684 28.606 359.563 28.3105 360.108 27.9318C360.669 27.5378 360.949 26.9848 360.949 26.2727V26.159C360.949 24.9924 360.547 24.0908 359.744 23.4545C358.941 22.8181 357.858 22.4999 356.494 22.4999C355.025 22.4999 353.843 22.8181 352.949 23.4545C352.055 24.0908 351.487 24.9696 351.244 26.0908L340.994 25.7272C341.297 23.606 342.078 21.7121 343.335 20.0454C344.608 18.3636 346.35 17.0454 348.562 16.0908C350.79 15.1212 353.464 14.6363 356.585 14.6363C358.813 14.6363 360.866 14.9015 362.744 15.4318C364.623 15.9469 366.259 16.7045 367.653 17.7045C369.047 18.6893 370.123 19.9015 370.881 21.3408C371.653 22.7802 372.04 24.4242 372.04 26.2727V49.9999H361.585V45.1363H361.312C360.691 46.3181 359.896 47.3181 358.926 48.1363C357.972 48.9545 356.843 49.5681 355.54 49.9772C354.252 50.3863 352.797 50.5908 351.176 50.5908ZM354.608 43.3181C355.805 43.3181 356.881 43.0757 357.835 42.5908C358.805 42.106 359.578 41.4393 360.153 40.5908C360.729 39.7272 361.017 38.7272 361.017 37.5908V34.2727C360.699 34.4393 360.313 34.5908 359.858 34.7272C359.419 34.8636 358.934 34.9924 358.403 35.1136C357.873 35.2348 357.328 35.3408 356.767 35.4318C356.206 35.5227 355.669 35.606 355.153 35.6818C354.108 35.8484 353.214 36.106 352.472 36.4545C351.744 36.803 351.184 37.2575 350.79 37.8181C350.411 38.3636 350.222 39.0151 350.222 39.7727C350.222 40.9242 350.631 41.803 351.449 42.409C352.282 43.0151 353.335 43.3181 354.608 43.3181ZM423.062 25.7499L412.858 26.0227C412.752 25.2954 412.464 24.6515 411.994 24.0908C411.525 23.5151 410.911 23.0681 410.153 22.7499C409.411 22.4166 408.547 22.2499 407.562 22.2499C406.275 22.2499 405.176 22.5075 404.267 23.0227C403.373 23.5378 402.934 24.2348 402.949 25.1136C402.934 25.7954 403.206 26.3863 403.767 26.8863C404.343 27.3863 405.366 27.7878 406.835 28.0908L413.562 29.3636C417.047 30.0302 419.638 31.1363 421.335 32.6818C423.047 34.2272 423.911 36.2727 423.926 38.8181C423.911 41.2121 423.199 43.2954 421.79 45.0681C420.396 46.8408 418.487 48.2196 416.062 49.2045C413.638 50.1742 410.866 50.659 407.744 50.659C402.759 50.659 398.828 49.6363 395.949 47.5908C393.085 45.5302 391.449 42.7727 391.04 39.3181L402.017 39.0454C402.259 40.3181 402.888 41.2878 403.903 41.9545C404.919 42.6212 406.214 42.9545 407.79 42.9545C409.214 42.9545 410.373 42.6893 411.267 42.159C412.161 41.6287 412.616 40.9242 412.631 40.0454C412.616 39.2575 412.267 38.6287 411.585 38.159C410.903 37.6742 409.835 37.2954 408.381 37.0227L402.29 35.8636C398.79 35.2272 396.184 34.053 394.472 32.3408C392.759 30.6136 391.911 28.4166 391.926 25.7499C391.911 23.4166 392.532 21.4242 393.79 19.7727C395.047 18.106 396.835 16.8333 399.153 15.9545C401.472 15.0757 404.206 14.6363 407.358 14.6363C412.085 14.6363 415.813 15.6287 418.54 17.6136C421.267 19.5833 422.775 22.2954 423.062 25.7499ZM429.398 49.9999V15.0908H439.966V21.4999H440.352C441.08 19.3787 442.307 17.7045 444.034 16.4772C445.761 15.2499 447.822 14.6363 450.216 14.6363C452.64 14.6363 454.716 15.2575 456.443 16.4999C458.17 17.7424 459.269 19.409 459.739 21.4999H460.102C460.754 19.4242 462.027 17.7651 463.92 16.5227C465.814 15.2651 468.049 14.6363 470.625 14.6363C473.928 14.6363 476.61 15.6969 478.67 17.8181C480.731 19.9242 481.761 22.8181 481.761 26.4999V49.9999H470.648V29.0454C470.648 27.303 470.201 25.9772 469.307 25.0681C468.413 24.1439 467.254 23.6818 465.83 23.6818C464.299 23.6818 463.095 24.1818 462.216 25.1818C461.352 26.1666 460.92 27.4924 460.92 29.159V49.9999H450.239V28.9318C450.239 27.3105 449.799 26.0302 448.92 25.0908C448.042 24.1515 446.883 23.6818 445.443 23.6818C444.473 23.6818 443.617 23.9166 442.875 24.3863C442.133 24.8408 441.549 25.4924 441.125 26.3408C440.716 27.1893 440.511 28.1893 440.511 29.3408V49.9999H429.398ZM488.648 49.9999V15.0908H499.761V49.9999H488.648ZM494.216 11.0227C492.655 11.0227 491.314 10.5075 490.193 9.47721C489.072 8.43176 488.511 7.17418 488.511 5.70448C488.511 4.24994 489.072 3.00751 490.193 1.97721C491.314 0.931755 492.655 0.409027 494.216 0.409027C495.792 0.409027 497.133 0.931755 498.239 1.97721C499.36 3.00751 499.92 4.24994 499.92 5.70448C499.92 7.17418 499.36 8.43176 498.239 9.47721C497.133 10.5075 495.792 11.0227 494.216 11.0227ZM517.949 3.45448V49.9999H506.835V3.45448H517.949ZM541.341 50.659C537.689 50.659 534.538 49.9393 531.886 48.4999C529.25 47.0454 527.22 44.9772 525.795 42.2954C524.386 39.5984 523.682 36.3939 523.682 32.6818C523.682 29.0757 524.394 25.9242 525.818 23.2272C527.242 20.5151 529.25 18.409 531.841 16.909C534.432 15.3939 537.485 14.6363 541 14.6363C543.485 14.6363 545.758 15.0227 547.818 15.7954C549.879 16.5681 551.659 17.7121 553.159 19.2272C554.659 20.7424 555.826 22.6136 556.659 24.8408C557.492 27.053 557.909 29.5908 557.909 32.4545V35.2272H527.568V28.7727H547.568C547.553 27.5908 547.273 26.5378 546.727 25.6136C546.182 24.6893 545.432 23.9696 544.477 23.4545C543.538 22.9242 542.455 22.659 541.227 22.659C539.985 22.659 538.871 22.9393 537.886 23.4999C536.902 24.0454 536.121 24.7954 535.545 25.7499C534.97 26.6893 534.667 27.7575 534.636 28.9545V35.5227C534.636 36.9469 534.917 38.1969 535.477 39.2727C536.038 40.3333 536.833 41.159 537.864 41.7499C538.894 42.3408 540.121 42.6363 541.545 42.6363C542.53 42.6363 543.424 42.4999 544.227 42.2272C545.03 41.9545 545.72 41.553 546.295 41.0227C546.871 40.4924 547.303 39.8408 547.591 39.0681L557.795 39.3636C557.371 41.6515 556.439 43.6439 555 45.3408C553.576 47.0227 551.705 48.3333 549.386 49.2727C547.068 50.1969 544.386 50.659 541.341 50.659ZM569.835 50.659C568.199 50.659 566.797 50.0833 565.631 48.9318C564.479 47.7802 563.911 46.3863 563.926 44.7499C563.911 43.1439 564.479 41.7727 565.631 40.6363C566.797 39.4848 568.199 38.909 569.835 38.909C571.381 38.909 572.744 39.4848 573.926 40.6363C575.123 41.7727 575.729 43.1439 575.744 44.7499C575.729 45.8408 575.441 46.8333 574.881 47.7272C574.335 48.6212 573.616 49.3333 572.722 49.8636C571.843 50.3939 570.881 50.659 569.835 50.659Z" fill="#3A3A3A"/>
<path d="M0.522727 127V80.4545H11.7727V100.136H12.3864L27.7727 80.4545H41.0227L24.5227 101.227L41.3182 127H27.8636L16.2727 108.704L11.7727 114.386V127H0.522727ZM56.7102 80.4545V127H45.4602V80.4545H56.7102ZM88.9318 94.409C88.7803 92.7424 88.1061 91.4469 86.9091 90.5227C85.7273 89.5833 84.0379 89.1136 81.8409 89.1136C80.3864 89.1136 79.1742 89.303 78.2045 89.6818C77.2348 90.0605 76.5076 90.5833 76.0227 91.2499C75.5379 91.9015 75.2879 92.6515 75.2727 93.4999C75.2424 94.1969 75.3788 94.8105 75.6818 95.3408C76 95.8711 76.4545 96.3408 77.0455 96.7499C77.6515 97.1439 78.3788 97.4924 79.2273 97.7954C80.0758 98.0984 81.0303 98.3636 82.0909 98.5908L86.0909 99.4999C88.3939 99.9999 90.4242 100.667 92.1818 101.5C93.9545 102.333 95.4394 103.326 96.6364 104.477C97.8485 105.629 98.7652 106.954 99.3864 108.454C100.008 109.954 100.326 111.636 100.341 113.5C100.326 116.439 99.5833 118.962 98.1136 121.068C96.6439 123.174 94.5303 124.788 91.7727 125.909C89.0303 127.03 85.7197 127.591 81.8409 127.591C77.947 127.591 74.553 127.008 71.6591 125.841C68.7652 124.674 66.5152 122.901 64.9091 120.523C63.303 118.144 62.4773 115.136 62.4318 111.5H73.2045C73.2955 113 73.697 114.25 74.4091 115.25C75.1212 116.25 76.0985 117.008 77.3409 117.523C78.5985 118.038 80.053 118.295 81.7045 118.295C83.2197 118.295 84.5076 118.091 85.5682 117.682C86.6439 117.273 87.4697 116.704 88.0455 115.977C88.6212 115.25 88.9167 114.417 88.9318 113.477C88.9167 112.598 88.6439 111.848 88.1136 111.227C87.5833 110.591 86.7652 110.045 85.6591 109.591C84.5682 109.121 83.1742 108.689 81.4773 108.295L76.6136 107.159C72.5833 106.235 69.4091 104.742 67.0909 102.682C64.7727 100.606 63.6212 97.803 63.6364 94.2727C63.6212 91.3939 64.3939 88.8711 65.9545 86.7045C67.5152 84.5378 69.6742 82.8484 72.4318 81.6363C75.1894 80.4242 78.3333 79.8181 81.8636 79.8181C85.4697 79.8181 88.5985 80.4318 91.25 81.659C93.9167 82.8711 95.9848 84.5757 97.4545 86.7727C98.9242 88.9696 99.6742 91.5151 99.7045 94.409H88.9318ZM106.023 127V80.4545H117.273V99.1363H135.614V80.4545H146.841V127H135.614V108.295H117.273V127H106.023ZM197.83 103.727C197.83 108.848 196.845 113.189 194.875 116.75C192.905 120.311 190.239 123.015 186.875 124.864C183.527 126.712 179.769 127.636 175.602 127.636C171.42 127.636 167.655 126.704 164.307 124.841C160.958 122.977 158.299 120.273 156.33 116.727C154.375 113.167 153.398 108.833 153.398 103.727C153.398 98.606 154.375 94.2651 156.33 90.7045C158.299 87.1439 160.958 84.4393 164.307 82.5908C167.655 80.7424 171.42 79.8181 175.602 79.8181C179.769 79.8181 183.527 80.7424 186.875 82.5908C190.239 84.4393 192.905 87.1439 194.875 90.7045C196.845 94.2651 197.83 98.606 197.83 103.727ZM186.33 103.727C186.33 100.697 185.898 98.1363 185.034 96.0454C184.186 93.9545 182.958 92.3711 181.352 91.2954C179.761 90.2196 177.845 89.6818 175.602 89.6818C173.375 89.6818 171.458 90.2196 169.852 91.2954C168.246 92.3711 167.011 93.9545 166.148 96.0454C165.299 98.1363 164.875 100.697 164.875 103.727C164.875 106.758 165.299 109.318 166.148 111.409C167.011 113.5 168.246 115.083 169.852 116.159C171.458 117.235 173.375 117.773 175.602 117.773C177.845 117.773 179.761 117.235 181.352 116.159C182.958 115.083 184.186 113.5 185.034 111.409C185.898 109.318 186.33 106.758 186.33 103.727ZM204.398 80.4545H218.33L230.148 109.273H230.693L242.511 80.4545H256.443V127H245.489V98.409H245.102L233.92 126.704H226.92L215.739 98.2499H215.352V127H204.398V80.4545Z" fill="#EB0D26"/>
</svg>
